%TF.GenerationSoftware,KiCad,Pcbnew,9.0.5*%
%TF.CreationDate,2025-12-26T20:20:43+00:00*%
%TF.ProjectId,macro pad,6d616372-6f20-4706-9164-2e6b69636164,rev?*%
%TF.SameCoordinates,Original*%
%TF.FileFunction,Copper,L1,Top*%
%TF.FilePolarity,Positive*%
%FSLAX46Y46*%
G04 Gerber Fmt 4.6, Leading zero omitted, Abs format (unit mm)*
G04 Created by KiCad (PCBNEW 9.0.5) date 2025-12-26 20:20:43*
%MOMM*%
%LPD*%
G01*
G04 APERTURE LIST*
G04 Aperture macros list*
%AMRoundRect*
0 Rectangle with rounded corners*
0 $1 Rounding radius*
0 $2 $3 $4 $5 $6 $7 $8 $9 X,Y pos of 4 corners*
0 Add a 4 corners polygon primitive as box body*
4,1,4,$2,$3,$4,$5,$6,$7,$8,$9,$2,$3,0*
0 Add four circle primitives for the rounded corners*
1,1,$1+$1,$2,$3*
1,1,$1+$1,$4,$5*
1,1,$1+$1,$6,$7*
1,1,$1+$1,$8,$9*
0 Add four rect primitives between the rounded corners*
20,1,$1+$1,$2,$3,$4,$5,0*
20,1,$1+$1,$4,$5,$6,$7,0*
20,1,$1+$1,$6,$7,$8,$9,0*
20,1,$1+$1,$8,$9,$2,$3,0*%
G04 Aperture macros list end*
%TA.AperFunction,ComponentPad*%
%ADD10C,2.200000*%
%TD*%
%TA.AperFunction,SMDPad,CuDef*%
%ADD11RoundRect,0.152400X1.063600X0.609600X-1.063600X0.609600X-1.063600X-0.609600X1.063600X-0.609600X0*%
%TD*%
%TA.AperFunction,ComponentPad*%
%ADD12C,1.524000*%
%TD*%
%TA.AperFunction,SMDPad,CuDef*%
%ADD13RoundRect,0.152400X-1.063600X-0.609600X1.063600X-0.609600X1.063600X0.609600X-1.063600X0.609600X0*%
%TD*%
%TA.AperFunction,Conductor*%
%ADD14C,0.500000*%
%TD*%
G04 APERTURE END LIST*
D10*
%TO.P,SW3,2,2*%
%TO.N,Net-(U1-GPIO3{slash}MOSI)*%
X26000000Y-84500000D03*
%TO.P,SW3,1,1*%
%TO.N,GND*%
X32350000Y-81960000D03*
%TD*%
%TO.P,SW6,2,2*%
%TO.N,Net-(U1-GPIO1{slash}RX)*%
X45000000Y-84500000D03*
%TO.P,SW6,1,1*%
%TO.N,GND*%
X51350000Y-81960000D03*
%TD*%
%TO.P,SW9,2,2*%
%TO.N,Net-(U1-GPIO28{slash}ADC2{slash}A2)*%
X64000000Y-84500000D03*
%TO.P,SW9,1,1*%
%TO.N,GND*%
X70350000Y-81960000D03*
%TD*%
D11*
%TO.P,U1,1,GPIO26/ADC0/A0*%
%TO.N,unconnected-(U1-GPIO26{slash}ADC0{slash}A0-Pad1)*%
X40045000Y-19880000D03*
D12*
X40880000Y-19880000D03*
D11*
%TO.P,U1,2,GPIO27/ADC1/A1*%
%TO.N,unconnected-(U1-GPIO27{slash}ADC1{slash}A1-Pad2)*%
X40045000Y-22420000D03*
D12*
X40880000Y-22420000D03*
D11*
%TO.P,U1,3,GPIO28/ADC2/A2*%
%TO.N,Net-(U1-GPIO28{slash}ADC2{slash}A2)*%
X40045000Y-24960000D03*
D12*
X40880000Y-24960000D03*
D11*
%TO.P,U1,4,GPIO29/ADC3/A3*%
%TO.N,Net-(U1-GPIO29{slash}ADC3{slash}A3)*%
X40045000Y-27500000D03*
D12*
X40880000Y-27500000D03*
D11*
%TO.P,U1,5,GPIO6/SDA*%
%TO.N,Net-(U1-GPIO6{slash}SDA)*%
X40045000Y-30040000D03*
D12*
X40880000Y-30040000D03*
D11*
%TO.P,U1,6,GPIO7/SCL*%
%TO.N,Net-(U1-GPIO7{slash}SCL)*%
X40045000Y-32580000D03*
D12*
X40880000Y-32580000D03*
D11*
%TO.P,U1,7,GPIO0/TX*%
%TO.N,Net-(U1-GPIO0{slash}TX)*%
X40045000Y-35120000D03*
D12*
X40880000Y-35120000D03*
%TO.P,U1,8,GPIO1/RX*%
%TO.N,Net-(U1-GPIO1{slash}RX)*%
X56120000Y-35120000D03*
D13*
X56955000Y-35120000D03*
D12*
%TO.P,U1,9,GPIO2/SCK*%
%TO.N,Net-(U1-GPIO2{slash}SCK)*%
X56120000Y-32580000D03*
D13*
X56955000Y-32580000D03*
D12*
%TO.P,U1,10,GPIO4/MISO*%
%TO.N,Net-(U1-GPIO4{slash}MISO)*%
X56120000Y-30040000D03*
D13*
X56955000Y-30040000D03*
D12*
%TO.P,U1,11,GPIO3/MOSI*%
%TO.N,Net-(U1-GPIO3{slash}MOSI)*%
X56120000Y-27500000D03*
D13*
X56955000Y-27500000D03*
D12*
%TO.P,U1,12,3V3*%
%TO.N,unconnected-(U1-3V3-Pad12)*%
X56120000Y-24960000D03*
D13*
X56955000Y-24960000D03*
D12*
%TO.P,U1,13,GND*%
%TO.N,GND*%
X56120000Y-22420000D03*
D13*
X56955000Y-22420000D03*
D12*
%TO.P,U1,14,VBUS*%
%TO.N,+5V*%
X56120000Y-19880000D03*
D13*
X56955000Y-19880000D03*
%TD*%
D10*
%TO.P,SW8,1,1*%
%TO.N,GND*%
X70460000Y-62920000D03*
%TO.P,SW8,2,2*%
%TO.N,Net-(U1-GPIO7{slash}SCL)*%
X64110000Y-65460000D03*
%TD*%
%TO.P,SW7,1,1*%
%TO.N,GND*%
X70460000Y-43920000D03*
%TO.P,SW7,2,2*%
%TO.N,Net-(U1-GPIO4{slash}MISO)*%
X64110000Y-46460000D03*
%TD*%
%TO.P,SW5,1,1*%
%TO.N,GND*%
X51460000Y-62920000D03*
%TO.P,SW5,2,2*%
%TO.N,Net-(U1-GPIO2{slash}SCK)*%
X45110000Y-65460000D03*
%TD*%
%TO.P,SW4,1,1*%
%TO.N,GND*%
X51460000Y-43920000D03*
%TO.P,SW4,2,2*%
%TO.N,Net-(U1-GPIO0{slash}TX)*%
X45110000Y-46460000D03*
%TD*%
%TO.P,SW2,1,1*%
%TO.N,GND*%
X32350000Y-62960000D03*
%TO.P,SW2,2,2*%
%TO.N,Net-(U1-GPIO29{slash}ADC3{slash}A3)*%
X26000000Y-65500000D03*
%TD*%
%TO.P,SW1,1,1*%
%TO.N,GND*%
X32460000Y-43920000D03*
%TO.P,SW1,2,2*%
%TO.N,Net-(U1-GPIO6{slash}SDA)*%
X26110000Y-46460000D03*
%TD*%
D14*
%TO.N,GND*%
X64920000Y-22420000D02*
X67500000Y-25000000D01*
X67500000Y-25000000D02*
X67500000Y-43920000D01*
X51460000Y-43920000D02*
X67500000Y-43920000D01*
X56955000Y-22420000D02*
X64920000Y-22420000D01*
X51350000Y-81960000D02*
X70350000Y-81960000D01*
X38460000Y-81960000D02*
X51350000Y-81960000D01*
X38460000Y-81960000D02*
X32350000Y-81960000D01*
X39500000Y-82000000D02*
X38500000Y-82000000D01*
X39500000Y-63000000D02*
X39500000Y-82000000D01*
X38500000Y-82000000D02*
X38460000Y-81960000D01*
X51460000Y-62920000D02*
X70460000Y-62920000D01*
X41080000Y-62920000D02*
X51460000Y-62920000D01*
X41000000Y-63000000D02*
X41080000Y-62920000D01*
X39500000Y-63000000D02*
X41000000Y-63000000D01*
X39460000Y-62960000D02*
X32350000Y-62960000D01*
X39500000Y-63000000D02*
X39460000Y-62960000D01*
X39500000Y-43920000D02*
X39500000Y-63000000D01*
X39500000Y-43920000D02*
X32460000Y-43920000D01*
X67500000Y-43920000D02*
X70460000Y-43920000D01*
X51460000Y-43920000D02*
X39500000Y-43920000D01*
%TD*%
M02*
