%TF.GenerationSoftware,KiCad,Pcbnew,9.0.5*%
%TF.CreationDate,2025-12-26T20:20:44+00:00*%
%TF.ProjectId,macro pad,6d616372-6f20-4706-9164-2e6b69636164,rev?*%
%TF.SameCoordinates,Original*%
%TF.FileFunction,Soldermask,Bot*%
%TF.FilePolarity,Negative*%
%FSLAX46Y46*%
G04 Gerber Fmt 4.6, Leading zero omitted, Abs format (unit mm)*
G04 Created by KiCad (PCBNEW 9.0.5) date 2025-12-26 20:20:44*
%MOMM*%
%LPD*%
G01*
G04 APERTURE LIST*
%ADD10C,2.200000*%
%ADD11C,1.700000*%
%ADD12C,4.000000*%
%ADD13C,1.524000*%
G04 APERTURE END LIST*
D10*
%TO.C,SW3*%
X26000000Y-84500000D03*
X32350000Y-81960000D03*
D11*
X34890000Y-87040000D03*
D12*
X29810000Y-87040000D03*
D11*
X24730000Y-87040000D03*
%TD*%
D10*
%TO.C,SW6*%
X45000000Y-84500000D03*
X51350000Y-81960000D03*
D11*
X53890000Y-87040000D03*
D12*
X48810000Y-87040000D03*
D11*
X43730000Y-87040000D03*
%TD*%
D10*
%TO.C,SW9*%
X64000000Y-84500000D03*
X70350000Y-81960000D03*
D11*
X72890000Y-87040000D03*
D12*
X67810000Y-87040000D03*
D11*
X62730000Y-87040000D03*
%TD*%
D13*
%TO.C,U1*%
X40880000Y-19880000D03*
X40880000Y-22420000D03*
X40880000Y-24960000D03*
X40880000Y-27500000D03*
X40880000Y-30040000D03*
X40880000Y-32580000D03*
X40880000Y-35120000D03*
X56120000Y-35120000D03*
X56120000Y-32580000D03*
X56120000Y-30040000D03*
X56120000Y-27500000D03*
X56120000Y-24960000D03*
X56120000Y-22420000D03*
X56120000Y-19880000D03*
%TD*%
D11*
%TO.C,SW8*%
X62840000Y-68000000D03*
D12*
X67920000Y-68000000D03*
D11*
X73000000Y-68000000D03*
D10*
X70460000Y-62920000D03*
X64110000Y-65460000D03*
%TD*%
D11*
%TO.C,SW7*%
X62840000Y-49000000D03*
D12*
X67920000Y-49000000D03*
D11*
X73000000Y-49000000D03*
D10*
X70460000Y-43920000D03*
X64110000Y-46460000D03*
%TD*%
D11*
%TO.C,SW5*%
X43840000Y-68000000D03*
D12*
X48920000Y-68000000D03*
D11*
X54000000Y-68000000D03*
D10*
X51460000Y-62920000D03*
X45110000Y-65460000D03*
%TD*%
D11*
%TO.C,SW4*%
X43840000Y-49000000D03*
D12*
X48920000Y-49000000D03*
D11*
X54000000Y-49000000D03*
D10*
X51460000Y-43920000D03*
X45110000Y-46460000D03*
%TD*%
D11*
%TO.C,SW2*%
X24730000Y-68040000D03*
D12*
X29810000Y-68040000D03*
D11*
X34890000Y-68040000D03*
D10*
X32350000Y-62960000D03*
X26000000Y-65500000D03*
%TD*%
D11*
%TO.C,SW1*%
X24840000Y-49000000D03*
D12*
X29920000Y-49000000D03*
D11*
X35000000Y-49000000D03*
D10*
X32460000Y-43920000D03*
X26110000Y-46460000D03*
%TD*%
M02*
