%TF.GenerationSoftware,KiCad,Pcbnew,9.0.5*%
%TF.CreationDate,2025-12-26T20:20:43+00:00*%
%TF.ProjectId,macro pad,6d616372-6f20-4706-9164-2e6b69636164,rev?*%
%TF.SameCoordinates,Original*%
%TF.FileFunction,Copper,L2,Bot*%
%TF.FilePolarity,Positive*%
%FSLAX46Y46*%
G04 Gerber Fmt 4.6, Leading zero omitted, Abs format (unit mm)*
G04 Created by KiCad (PCBNEW 9.0.5) date 2025-12-26 20:20:43*
%MOMM*%
%LPD*%
G01*
G04 APERTURE LIST*
%TA.AperFunction,ComponentPad*%
%ADD10C,2.200000*%
%TD*%
%TA.AperFunction,ComponentPad*%
%ADD11C,1.524000*%
%TD*%
%TA.AperFunction,Conductor*%
%ADD12C,0.200000*%
%TD*%
%TA.AperFunction,Conductor*%
%ADD13C,0.500000*%
%TD*%
G04 APERTURE END LIST*
D10*
%TO.P,SW3,2,2*%
%TO.N,Net-(U1-GPIO3{slash}MOSI)*%
X26000000Y-84500000D03*
%TO.P,SW3,1,1*%
%TO.N,GND*%
X32350000Y-81960000D03*
%TD*%
%TO.P,SW6,2,2*%
%TO.N,Net-(U1-GPIO1{slash}RX)*%
X45000000Y-84500000D03*
%TO.P,SW6,1,1*%
%TO.N,GND*%
X51350000Y-81960000D03*
%TD*%
%TO.P,SW9,2,2*%
%TO.N,Net-(U1-GPIO28{slash}ADC2{slash}A2)*%
X64000000Y-84500000D03*
%TO.P,SW9,1,1*%
%TO.N,GND*%
X70350000Y-81960000D03*
%TD*%
D11*
%TO.P,U1,1,GPIO26/ADC0/A0*%
%TO.N,unconnected-(U1-GPIO26{slash}ADC0{slash}A0-Pad1)*%
X40880000Y-19880000D03*
%TO.P,U1,2,GPIO27/ADC1/A1*%
%TO.N,unconnected-(U1-GPIO27{slash}ADC1{slash}A1-Pad2)*%
X40880000Y-22420000D03*
%TO.P,U1,3,GPIO28/ADC2/A2*%
%TO.N,Net-(U1-GPIO28{slash}ADC2{slash}A2)*%
X40880000Y-24960000D03*
%TO.P,U1,4,GPIO29/ADC3/A3*%
%TO.N,Net-(U1-GPIO29{slash}ADC3{slash}A3)*%
X40880000Y-27500000D03*
%TO.P,U1,5,GPIO6/SDA*%
%TO.N,Net-(U1-GPIO6{slash}SDA)*%
X40880000Y-30040000D03*
%TO.P,U1,6,GPIO7/SCL*%
%TO.N,Net-(U1-GPIO7{slash}SCL)*%
X40880000Y-32580000D03*
%TO.P,U1,7,GPIO0/TX*%
%TO.N,Net-(U1-GPIO0{slash}TX)*%
X40880000Y-35120000D03*
%TO.P,U1,8,GPIO1/RX*%
%TO.N,Net-(U1-GPIO1{slash}RX)*%
X56120000Y-35120000D03*
%TO.P,U1,9,GPIO2/SCK*%
%TO.N,Net-(U1-GPIO2{slash}SCK)*%
X56120000Y-32580000D03*
%TO.P,U1,10,GPIO4/MISO*%
%TO.N,Net-(U1-GPIO4{slash}MISO)*%
X56120000Y-30040000D03*
%TO.P,U1,11,GPIO3/MOSI*%
%TO.N,Net-(U1-GPIO3{slash}MOSI)*%
X56120000Y-27500000D03*
%TO.P,U1,12,3V3*%
%TO.N,unconnected-(U1-3V3-Pad12)*%
X56120000Y-24960000D03*
%TO.P,U1,13,GND*%
%TO.N,GND*%
X56120000Y-22420000D03*
%TO.P,U1,14,VBUS*%
%TO.N,+5V*%
X56120000Y-19880000D03*
%TD*%
D10*
%TO.P,SW8,1,1*%
%TO.N,GND*%
X70460000Y-62920000D03*
%TO.P,SW8,2,2*%
%TO.N,Net-(U1-GPIO7{slash}SCL)*%
X64110000Y-65460000D03*
%TD*%
%TO.P,SW7,1,1*%
%TO.N,GND*%
X70460000Y-43920000D03*
%TO.P,SW7,2,2*%
%TO.N,Net-(U1-GPIO4{slash}MISO)*%
X64110000Y-46460000D03*
%TD*%
%TO.P,SW5,1,1*%
%TO.N,GND*%
X51460000Y-62920000D03*
%TO.P,SW5,2,2*%
%TO.N,Net-(U1-GPIO2{slash}SCK)*%
X45110000Y-65460000D03*
%TD*%
%TO.P,SW4,1,1*%
%TO.N,GND*%
X51460000Y-43920000D03*
%TO.P,SW4,2,2*%
%TO.N,Net-(U1-GPIO0{slash}TX)*%
X45110000Y-46460000D03*
%TD*%
%TO.P,SW2,1,1*%
%TO.N,GND*%
X32350000Y-62960000D03*
%TO.P,SW2,2,2*%
%TO.N,Net-(U1-GPIO29{slash}ADC3{slash}A3)*%
X26000000Y-65500000D03*
%TD*%
%TO.P,SW1,1,1*%
%TO.N,GND*%
X32460000Y-43920000D03*
%TO.P,SW1,2,2*%
%TO.N,Net-(U1-GPIO6{slash}SDA)*%
X26110000Y-46460000D03*
%TD*%
D12*
%TO.N,Net-(U1-GPIO7{slash}SCL)*%
X43420000Y-32580000D02*
X40880000Y-32580000D01*
X44483000Y-31517000D02*
X43420000Y-32580000D01*
X60051000Y-61401000D02*
X60051000Y-35007690D01*
X60051000Y-35007690D02*
X56560310Y-31517000D01*
X64110000Y-65460000D02*
X60051000Y-61401000D01*
X56560310Y-31517000D02*
X44483000Y-31517000D01*
D13*
%TO.N,Net-(U1-GPIO28{slash}ADC2{slash}A2)*%
X23540000Y-24960000D02*
X40880000Y-24960000D01*
X21000000Y-27500000D02*
X23540000Y-24960000D01*
X21000000Y-73500000D02*
X21000000Y-27500000D01*
X36500000Y-84500000D02*
X32000000Y-84500000D01*
X42000000Y-90000000D02*
X36500000Y-84500000D01*
X58000000Y-90000000D02*
X42000000Y-90000000D01*
X58000000Y-87000000D02*
X58000000Y-90000000D01*
X60500000Y-84500000D02*
X58000000Y-87000000D01*
X64000000Y-84500000D02*
X60500000Y-84500000D01*
X32000000Y-84500000D02*
X21000000Y-73500000D01*
%TO.N,Net-(U1-GPIO1{slash}RX)*%
X48500000Y-78000000D02*
X45000000Y-81500000D01*
X45000000Y-81500000D02*
X45000000Y-84500000D01*
X59500000Y-71500000D02*
X53000000Y-78000000D01*
X59500000Y-36500000D02*
X59500000Y-71500000D01*
X53000000Y-78000000D02*
X48500000Y-78000000D01*
X58120000Y-35120000D02*
X59500000Y-36500000D01*
X56120000Y-35120000D02*
X58120000Y-35120000D01*
%TO.N,Net-(U1-GPIO2{slash}SCK)*%
X52000000Y-32500000D02*
X52080000Y-32580000D01*
X52080000Y-32580000D02*
X56120000Y-32580000D01*
X51500000Y-33000000D02*
X52000000Y-32500000D01*
X53500000Y-40000000D02*
X51500000Y-38000000D01*
X51500000Y-38000000D02*
X51500000Y-33000000D01*
X57000000Y-40000000D02*
X53500000Y-40000000D01*
X57000000Y-40000000D02*
X57000000Y-42000000D01*
X57000000Y-56500000D02*
X57000000Y-40000000D01*
X55000000Y-58500000D02*
X57000000Y-56500000D01*
X48000000Y-58500000D02*
X55000000Y-58500000D01*
X45110000Y-61390000D02*
X48000000Y-58500000D01*
X45110000Y-65460000D02*
X45110000Y-61390000D01*
%TO.N,Net-(U1-GPIO3{slash}MOSI)*%
X65500000Y-27500000D02*
X56120000Y-27500000D01*
X76500000Y-38500000D02*
X65500000Y-27500000D01*
X76500000Y-87000000D02*
X76500000Y-38500000D01*
X70500000Y-93000000D02*
X76500000Y-87000000D01*
X22000000Y-93000000D02*
X70500000Y-93000000D01*
X22000000Y-84500000D02*
X22000000Y-93000000D01*
X26000000Y-84500000D02*
X22000000Y-84500000D01*
%TO.N,Net-(U1-GPIO29{slash}ADC3{slash}A3)*%
X26000000Y-27500000D02*
X40880000Y-27500000D01*
X22500000Y-62000000D02*
X22500000Y-31000000D01*
X26000000Y-65500000D02*
X22500000Y-62000000D01*
X22500000Y-31000000D02*
X26000000Y-27500000D01*
%TO.N,Net-(U1-GPIO6{slash}SDA)*%
X27500000Y-30000000D02*
X27540000Y-30040000D01*
X26110000Y-31390000D02*
X27500000Y-30000000D01*
X27540000Y-30040000D02*
X40880000Y-30040000D01*
X26110000Y-46460000D02*
X26110000Y-31390000D01*
%TO.N,Net-(U1-GPIO0{slash}TX)*%
X45110000Y-44610000D02*
X40880000Y-40380000D01*
X40880000Y-40380000D02*
X40880000Y-35120000D01*
X45110000Y-46460000D02*
X45110000Y-44610000D01*
%TO.N,Net-(U1-GPIO4{slash}MISO)*%
X57460000Y-30040000D02*
X56120000Y-30040000D01*
X63000000Y-30000000D02*
X57500000Y-30000000D01*
X64110000Y-31110000D02*
X63000000Y-30000000D01*
X57500000Y-30000000D02*
X57460000Y-30040000D01*
X64110000Y-46460000D02*
X64110000Y-31110000D01*
%TD*%
M02*
